<svg xmlns="http://www.w3.org/2000/svg" width="512" height="512" viewBox="0 0 512 512" version="1.1">
	<path d="M 250.647 43.428 C 247.526 45.852, 237.441 52.671, 228.236 58.581 C 219.031 64.492, 196.425 79.229, 178 91.331 C 82.698 153.926, 87 150.980, 87 153.655 C 87 155.239, 89.240 155.825, 98.913 156.773 C 106.261 157.494, 106.336 157.530, 107.494 160.976 C 108.408 163.696, 109.349 164.592, 111.825 165.098 C 117.101 166.177, 118 167.568, 118 174.654 C 118 179.428, 117.617 181.210, 116.500 181.638 C 114.274 182.492, 114.673 184.355, 117.632 186.928 L 120.263 189.216 119.534 216.113 C 118.814 242.622, 118.836 243.072, 121.013 247.249 C 123.178 251.403, 123.209 252.002, 122.583 276.994 C 122.231 291.022, 121.489 330.158, 120.934 363.962 C 120.089 415.488, 119.689 425.686, 118.463 427.041 C 117.292 428.334, 117.003 432.240, 117.014 446.579 C 117.021 456.435, 117.302 465.527, 117.639 466.782 C 118.234 469.006, 118.528 469.056, 129.375 468.782 L 140.500 468.500 140.255 376.500 C 140.120 325.900, 140.345 276.850, 140.755 267.500 L 141.500 250.500 144.750 250.187 C 146.878 249.981, 148.048 250.327, 148.139 251.187 C 148.215 251.909, 148.336 272.525, 148.409 297 C 148.481 321.475, 148.644 369.962, 148.770 404.750 L 149 468 199.500 468 L 250 468 250 360.934 C 250 289.043, 250.340 253.233, 251.035 251.934 C 252.192 249.772, 255.963 249.363, 257.800 251.200 C 258.718 252.118, 259 277.689, 259 360.200 L 259 468 309.893 468 C 353.289 468, 360.867 467.788, 361.339 466.559 C 361.643 465.766, 361.922 417.114, 361.959 358.443 C 361.995 299.772, 362.271 251.370, 362.572 250.884 C 363.405 249.536, 369.001 249.831, 369.521 251.250 C 369.772 251.938, 370.096 301.100, 370.239 360.500 L 370.500 468.500 382 468.500 L 393.500 468.500 394.372 449.160 C 395.205 430.665, 395.156 429.702, 393.247 427.120 C 391.345 424.547, 391.174 421.445, 389.637 361.460 C 388.750 326.832, 387.739 287.901, 387.391 274.948 C 386.781 252.262, 386.836 251.242, 388.879 247.237 C 390.888 243.299, 391 241.629, 391 215.623 L 391 188.167 393.736 186.173 C 396.356 184.265, 396.399 184.098, 394.736 182.261 C 393.451 180.841, 393 178.600, 393 173.640 C 393 166.473, 392.917 166.583, 399.126 165.556 C 402.414 165.012, 402.809 164.598, 403.367 161.105 C 403.899 157.778, 404.410 157.168, 407.117 156.627 C 408.840 156.282, 412.344 156, 414.902 156 C 420.319 156, 424.722 153.575, 423.023 151.528 C 422.433 150.817, 413.074 144.463, 402.225 137.408 C 370.094 116.513, 267.875 48.093, 263 44.219 C 260.525 42.252, 258.010 40.278, 257.411 39.832 C 256.759 39.347, 254.042 40.792, 250.647 43.428 M 238 85.191 C 230.025 90.729, 213.150 102.232, 200.500 110.753 C 161.447 137.058, 132.022 157.465, 132.011 158.250 C 132.005 158.662, 186.900 159, 254 159 C 327.205 159, 376 158.634, 376 158.084 C 376 157.580, 374.313 155.843, 372.250 154.225 C 367.090 150.174, 325.571 121.624, 308.500 110.387 C 300.800 105.318, 285.963 95.283, 275.528 88.085 C 265.093 80.888, 255.643 75.028, 254.528 75.061 C 253.413 75.095, 245.975 79.654, 238 85.191 M 252.750 103.750 L 211 104.022 211 124.856 C 211 144.802, 211.090 145.771, 213.116 147.595 C 215.133 149.412, 217.068 149.486, 254.866 149.203 C 293.491 148.914, 294.545 148.854, 296.250 146.842 C 297.791 145.025, 298 142.360, 298 124.496 C 298 106.924, 297.789 104.133, 296.418 103.607 C 295.548 103.273, 294.761 103.107, 294.668 103.239 C 294.576 103.370, 275.712 103.600, 252.750 103.750 M 228.249 117.032 C 227.011 117.529, 225.243 119.520, 224.320 121.456 C 222.160 125.986, 223.386 131.482, 227.186 134.302 C 229.550 136.056, 230.241 136.143, 232.936 135.026 C 234.621 134.328, 236 133.372, 236 132.900 C 236 132.429, 234.888 132.549, 233.530 133.168 C 230.257 134.660, 228.357 133.071, 227.525 128.148 C 226.270 120.718, 230.498 116.130, 235.549 119.440 C 237.666 120.827, 238 120.843, 238 119.558 C 238 116.568, 232.772 115.214, 228.249 117.032 M 245.053 120.194 C 240.972 130.046, 239.350 135.051, 240.345 134.726 C 240.980 134.519, 242.466 131.683, 243.647 128.425 C 245.655 122.882, 245.839 122.677, 246.504 125.248 C 246.896 126.759, 246.958 128.666, 246.644 129.485 C 246.048 131.037, 249.954 136, 251.771 136 C 252.968 136, 252.603 133.985, 249.828 125.261 C 247.561 118.131, 246.412 116.912, 245.053 120.194 M 271 118.833 C 271 119.292, 271.325 119.992, 271.722 120.389 C 272.120 120.786, 272.303 124.502, 272.130 128.647 C 271.844 135.515, 271.979 136.151, 273.658 135.833 C 274.991 135.580, 275.587 134.432, 275.814 131.680 C 276.183 127.217, 277.047 127.265, 280.190 131.923 C 281.460 133.806, 283.063 135.531, 283.750 135.756 C 285.769 136.419, 285.191 133.560, 282.507 129.605 C 280.444 126.566, 280.272 125.833, 281.507 125.359 C 283.651 124.536, 283.352 120.259, 281.066 119.035 C 278.759 117.800, 271 117.645, 271 118.833 M 255.430 121.422 C 255.096 122.754, 255.202 126.241, 255.665 129.172 C 256.464 134.221, 256.674 134.516, 259.692 134.809 C 263.715 135.199, 265.610 132.564, 266.569 125.250 C 267.438 118.628, 265.521 118.042, 264.533 124.628 C 263.635 130.617, 263.068 132, 261.510 132 C 260.100 132, 259.035 128.941, 259.014 124.832 C 258.985 119.255, 256.555 116.942, 255.430 121.422 M 276 123.115 C 276 125.109, 276.433 126.024, 277.250 125.755 C 279.120 125.139, 279.345 121.346, 277.553 120.659 C 276.358 120.200, 276 120.767, 276 123.115 M 163 187.988 C 160.525 188.379, 201.700 188.696, 254.500 188.691 C 307.300 188.687, 346.450 188.364, 341.500 187.974 C 329.745 187.049, 168.859 187.060, 163 187.988 M 167.340 195.881 C 156.380 204.671, 148.937 215.171, 146.978 224.605 C 144.939 234.429, 144.190 234.083, 166.806 233.771 L 186.465 233.500 187.629 225.300 C 188.270 220.790, 190.191 212.197, 191.897 206.206 C 193.604 200.214, 195 194.567, 195 193.656 C 195 192.211, 193.543 192, 183.590 192 L 172.180 192 167.340 195.881 M 203.200 193.259 C 201.608 195.178, 197.188 209.256, 195.954 216.340 C 195.363 219.738, 195.019 224.988, 195.189 228.009 L 195.500 233.500 222.727 233.766 L 249.954 234.032 250.511 231.766 C 250.818 230.520, 250.941 221.175, 250.784 211 L 250.500 192.500 227.387 192.232 C 209.428 192.024, 204.035 192.253, 203.200 193.259 M 258.607 193.582 C 257.818 195.638, 257.842 228.808, 258.634 231.766 L 259.241 234.031 286.871 233.766 L 314.500 233.500 314.409 226.500 C 314.310 218.874, 311.548 208.410, 306.952 198.250 L 304.125 192 281.670 192 C 262.116 192, 259.136 192.204, 258.607 193.582 M 313 193.157 C 313 193.793, 315.010 200.206, 317.467 207.407 C 319.924 214.608, 322.286 223.425, 322.717 227 L 323.501 233.500 343.226 233.771 L 362.951 234.042 363.586 231.514 C 365.899 222.297, 355.330 205.060, 341.840 196.052 L 335.772 192 324.386 192 C 316.432 192, 313 192.349, 313 193.157 M 174.500 274 C 174.160 274.550, 172.195 275, 170.132 275 C 162.799 275, 162.815 274.950, 162.236 300.150 C 161.738 321.830, 161.643 322.680, 159.610 323.573 C 158.027 324.268, 157.423 325.562, 157.193 328.750 L 156.885 333 167.859 333 L 178.833 333 179.793 330.250 L 180.753 327.500 181.485 330.250 L 182.217 333 194.225 333 C 205.741 333, 206.212 332.918, 205.710 331 C 205.276 329.339, 205.680 329, 208.094 329 L 211 329 211 306.490 C 211 284.948, 210.911 283.906, 208.928 282.240 C 207.789 281.283, 206.265 279.105, 205.542 277.399 C 204.490 274.920, 203.453 274.171, 200.363 273.660 C 194.203 272.642, 175.185 272.892, 174.500 274 M 305.944 275.750 C 305.390 277.262, 303.714 279.506, 302.218 280.735 L 299.500 282.970 299 307.885 L 298.500 332.799 302.890 333.400 C 305.304 333.730, 310.789 334, 315.078 334 L 322.877 334 323.564 329.425 C 324.328 324.330, 325.686 324.629, 326.179 330 L 326.500 333.500 339.250 333.780 L 352 334.060 352 327.530 C 352 321.231, 351.911 321, 349.500 321 L 347 321 346.927 304.250 C 346.845 285.322, 345.986 277.237, 343.918 275.928 C 343.138 275.435, 340.813 275.024, 338.750 275.015 C 336.688 275.007, 335 274.550, 335 274 C 335 273.381, 329.658 273, 320.975 273 L 306.950 273 305.944 275.750 M 210.431 275.112 C 209.372 276.826, 211.263 277.523, 222.144 279.427 C 228.868 280.604, 232.543 280.857, 233.213 280.187 C 234.536 278.864, 232.091 277.596, 224.332 275.586 C 217.185 273.734, 211.404 273.537, 210.431 275.112 M 282.250 276.662 C 275.220 279.091, 272.909 281, 277 281 C 279.208 281, 296.477 278.188, 299.250 277.377 C 300.212 277.096, 301 276.221, 301 275.433 C 301 273.093, 290.612 273.774, 282.250 276.662 M 182.500 289.663 C 173.597 291.582, 169.287 296.645, 170.276 304.021 C 171.489 313.067, 178.517 317.187, 189.311 315.179 C 197.901 313.582, 201.119 310.073, 199.030 304.579 C 197.916 301.650, 188.984 297, 184.471 297 C 180.555 297, 181.584 298.575, 186.750 300.485 C 193.928 303.139, 196 304.727, 196 307.574 C 196 311.055, 190.391 313.388, 183.592 312.735 C 177.554 312.155, 175 309.545, 175 303.954 C 175 298.112, 176.580 295.073, 180.462 293.452 C 185.031 291.542, 193.948 291.575, 196.712 293.511 C 199.627 295.552, 200.647 293.647, 198.036 291.036 C 196.424 289.424, 194.802 289.024, 190.250 289.116 C 187.088 289.180, 183.600 289.426, 182.500 289.663 M 318.733 290.088 C 308.868 292.412, 304.291 300.861, 308.494 308.989 C 310.952 313.742, 313.678 315.002, 321.473 314.985 C 329.392 314.969, 332.763 313.676, 334.923 309.829 C 337.822 304.663, 332.385 299.427, 321.956 297.341 C 316.879 296.326, 318.732 299.152, 324.562 301.317 C 330.953 303.690, 332.163 304.793, 331.801 307.914 C 331.151 313.500, 317.143 314.540, 313.028 309.308 C 311.113 306.874, 310.322 304, 311.567 304 C 311.878 304, 313.608 305.125, 315.411 306.500 C 317.214 307.875, 319.954 309, 321.499 309 C 324.203 309, 324.244 308.928, 322.580 307.088 C 321.628 306.037, 318.858 304.588, 316.425 303.870 C 311.775 302.497, 311.379 301.764, 312.994 297.517 C 314.900 292.503, 326.629 290.205, 333.137 293.571 C 335.984 295.043, 336.152 295.029, 335.828 293.346 C 335.087 289.496, 327.435 288.038, 318.733 290.088 M 177.593 305.102 C 179.597 307.317, 184.175 310, 185.950 310 C 188.654 310, 186.553 306.699, 182.750 304.973 C 176.955 302.343, 175.136 302.388, 177.593 305.102 M 217.035 311.934 C 216.466 312.998, 216 317.498, 216 321.934 L 216 330 222.500 330 L 229 330 229 321.035 C 229 313.195, 228.757 311.940, 227.066 311.035 C 223.758 309.265, 218.197 309.764, 217.035 311.934 M 282 310.979 C 279.903 312.304, 279.161 328.854, 281.142 330.109 C 281.889 330.582, 284.863 330.976, 287.750 330.985 L 293 331 293 321.535 C 293 313.201, 292.769 311.947, 291.066 311.035 C 288.661 309.748, 283.993 309.719, 282 310.979 M 184 341.042 L 184 347 192.935 347 C 197.849 347, 203.081 346.539, 204.562 345.976 C 206.984 345.055, 207.195 344.588, 206.663 341.313 C 206.338 339.311, 205.719 337.354, 205.286 336.964 C 204.854 336.574, 199.887 335.991, 194.250 335.669 L 184 335.084 184 341.042 M 159.441 338.379 C 159.113 339.688, 158.991 342.050, 159.172 343.629 L 159.500 346.500 170.250 346.784 L 181 347.068 181 344.659 C 181 343.334, 180.719 340.844, 180.375 339.125 L 179.750 336 169.894 336 C 160.349 336, 160.019 336.075, 159.441 338.379 M 301.402 337.395 C 301.108 338.162, 301.009 340.524, 301.183 342.645 L 301.500 346.500 313 346.500 L 324.500 346.500 324.191 343 C 323.555 335.779, 323.926 336, 312.401 336 C 304.373 336, 301.813 336.325, 301.402 337.395 M 327.214 341.500 L 327.263 347 337.050 347 C 349.333 347, 350 346.747, 350 342.093 C 350 336.539, 348.884 336, 337.382 336 L 327.164 336 327.214 341.500 M 237.039 344.928 C 235.790 347.261, 236.598 349.715, 239.048 351.026 C 242.503 352.875, 245.685 347.085, 242.800 344.200 C 241 342.400, 238.202 342.753, 237.039 344.928 M 267.386 344.435 C 267.055 345.298, 267.074 347.157, 267.427 348.565 C 267.948 350.642, 268.583 351.067, 270.785 350.813 C 273.162 350.539, 273.500 350.064, 273.500 347 C 273.500 343.923, 273.167 343.462, 270.744 343.183 C 268.946 342.976, 267.779 343.411, 267.386 344.435 M 284.237 352.163 C 282.940 353.460, 282.497 368.520, 283.630 372.750 C 284.195 374.856, 284.769 375, 292.598 375 C 302.540 375, 302.239 375.457, 301.793 361 L 301.500 351.500 293.487 351.213 C 288.111 351.021, 285.066 351.334, 284.237 352.163 M 209.217 363.250 L 209.500 374.500 218.500 374.500 L 227.500 374.500 227.835 370.500 C 228.019 368.300, 227.868 363.238, 227.499 359.250 L 226.829 352 217.882 352 L 208.934 352 209.217 363.250 M 186.500 354 C 186.108 354.635, 188.823 355, 193.941 355 C 198.647 355, 202 354.584, 202 354 C 202 353.423, 198.853 353, 194.559 353 C 190.466 353, 186.840 353.450, 186.500 354 M 269.357 353.766 C 268.671 354.207, 268.072 358.441, 267.857 364.372 C 267.559 372.623, 267.765 374.413, 269.114 375.281 C 272.601 377.522, 274.004 375.489, 273.942 368.281 C 273.840 356.279, 272.425 351.797, 269.357 353.766 M 309 354 C 309 354.584, 312.353 355, 317.059 355 C 322.177 355, 324.892 354.635, 324.500 354 C 324.160 353.450, 320.534 353, 316.441 353 C 312.147 353, 309 353.423, 309 354 M 237.596 364.019 C 236.858 374.737, 237.104 376, 239.937 376 C 243.559 376, 244.233 373.624, 243.477 363.532 C 242.803 354.541, 242.635 354, 240.524 354 C 238.401 354, 238.250 354.517, 237.596 364.019 M 187.667 357.667 C 187.300 358.033, 187 362.083, 187 366.667 L 187 375 194.643 375 L 202.286 375 201.728 366.862 C 201.373 361.689, 200.684 358.415, 199.835 357.877 C 198.252 356.874, 188.626 356.707, 187.667 357.667 M 309 366.044 L 309 375.088 316.250 374.794 L 323.500 374.500 323.823 370 C 324 367.525, 323.860 363.587, 323.512 361.250 L 322.877 357 315.939 357 L 309 357 309 366.044 M 163 384.383 C 163 390.926, 162.772 391.826, 161 392.290 C 159.790 392.606, 159 393.654, 159 394.941 C 159 396.993, 159.371 397.060, 169.250 396.785 L 179.500 396.500 179.233 390 C 179.086 386.425, 178.728 382.038, 178.437 380.250 L 177.909 377 170.455 377 L 163 377 163 384.383 M 331 384.878 C 331 390.660, 330.601 393.086, 329.500 394 C 326.448 396.533, 328.206 397.062, 338.738 396.784 C 348.201 396.534, 349.518 396.284, 349.825 394.679 C 350.051 393.500, 349.438 392.666, 348.087 392.312 C 346.209 391.821, 346 391.028, 346 384.383 L 346 377 338.500 377 L 331 377 331 384.878 M 190.771 381.664 C 188.536 382.045, 187.851 382.886, 186.987 386.314 C 186.407 388.616, 185.497 391.534, 184.966 392.797 C 184.435 394.060, 184 395.523, 184 396.047 C 184 396.588, 188.366 397, 194.101 397 L 204.203 397 203.489 389.750 C 203.097 385.762, 202.624 382.335, 202.437 382.133 C 201.859 381.505, 193.643 381.176, 190.771 381.664 M 283.633 383.785 C 283.366 384.216, 282.832 387.366, 282.445 390.785 L 281.742 397 291.013 397 L 300.285 397 299.649 390.915 C 299.299 387.568, 298.758 384.418, 298.447 383.915 C 297.759 382.801, 284.314 382.683, 283.633 383.785 M 307.264 385.250 C 306.460 386.275, 303 395.548, 303 396.678 C 303 396.855, 307.950 397, 314 397 L 325 397 325 393.065 C 325 390.901, 324.561 387.976, 324.025 386.565 C 323.099 384.130, 322.673 384, 315.647 384 C 310.915 384, 307.891 384.451, 307.264 385.250 M 211.378 387.984 C 210.212 388.455, 208.976 389.960, 208.633 391.327 C 208.289 392.695, 207.733 394.531, 207.397 395.407 C 206.862 396.803, 208.110 397, 217.501 397 L 228.217 397 227.541 394.250 C 226.101 388.393, 224.386 386.995, 218.727 387.063 C 215.852 387.098, 212.545 387.512, 211.378 387.984" stroke="none" fill="black" fill-rule="evenodd"/>
</svg>