<svg xmlns="http://www.w3.org/2000/svg" width="512" height="512" viewBox="0 0 512 512" version="1.1">
	<path d="M 302.500 119.673 C 296.450 121.020, 269.432 127.028, 242.460 133.025 C 179.830 146.951, 119.849 160.817, 119.130 161.537 C 118.822 161.844, 119.118 162.862, 119.788 163.798 C 123.207 168.580, 123.427 172, 120.316 172 C 118.990 172, 85.956 179.119, 61.993 184.570 L 55.028 186.154 56.514 189.027 C 57.331 190.608, 58 192.486, 58 193.200 C 58 194.076, 53.374 195.399, 43.829 197.254 C 36.036 198.768, 29.439 200.228, 29.169 200.498 C 28.900 200.767, 29.426 201.813, 30.339 202.823 C 31.253 203.832, 32 206.284, 32 208.272 L 32 211.886 24 213.684 C 19.600 214.673, 16 215.967, 16 216.561 C 16 217.154, 17.125 218.618, 18.500 219.813 C 20.608 221.646, 21 222.862, 21 227.559 C 21 230.624, 20.504 234.059, 19.897 235.193 C 18.335 238.111, 19.238 238.452, 33.829 240.455 C 57.888 243.757, 60 244.701, 60 252.149 C 60 255.620, 60.605 256.886, 63.703 259.894 C 66.648 262.754, 67.057 263.558, 65.703 263.819 C 63.611 264.222, 63.521 265.813, 65.469 267.966 C 66.709 269.336, 66.953 276.138, 67.033 311.523 C 67.098 340.345, 66.795 353.568, 66.064 353.812 C 65.479 354.007, 65 355.029, 65 356.083 C 65 357.905, 65.942 358, 84 358 C 94.450 358, 102.993 358.337, 102.985 358.750 C 102.924 361.705, 100.991 362.019, 82.655 362.049 C 72.361 362.066, 63.444 361.775, 62.840 361.401 C 62.188 360.998, 61.927 361.288, 62.199 362.111 C 62.451 362.875, 63.634 363.644, 64.828 363.820 C 66.936 364.130, 67 364.542, 67 377.870 C 67 387.062, 66.611 391.989, 65.824 392.776 C 64.922 393.678, 65.038 394.385, 66.324 395.805 C 68.638 398.362, 68.453 399.415, 65 403.347 C 62.701 405.966, 62 407.730, 62 410.901 C 62 414.660, 61.794 414.996, 59.750 414.582 C 50.805 412.769, 29.067 410.897, 25.256 411.612 C 22.647 412.101, 22 412.703, 22 414.643 C 22 415.974, 22.563 417.255, 23.250 417.489 C 23.938 417.724, 40.250 420.192, 59.500 422.975 C 117.371 431.339, 186.657 441.813, 218.500 447.010 C 271.885 455.723, 270.101 455.534, 281 453.629 C 286.225 452.715, 308.950 448.810, 331.500 444.949 C 421.213 429.592, 490.040 417.293, 490.861 416.472 C 491.070 416.264, 490.940 414.897, 490.573 413.435 C 489.911 410.797, 489.857 410.782, 483.203 411.466 C 479.516 411.844, 468.850 413.444, 459.500 415.021 C 450.150 416.597, 418.650 421.738, 389.500 426.444 C 360.350 431.151, 322.775 437.259, 306 440.019 C 289.225 442.778, 273.700 445.038, 271.500 445.039 C 266.548 445.043, 227.854 439.813, 228.447 439.220 C 229.005 438.661, 263.381 432.966, 293.145 428.500 C 305.990 426.573, 319.650 424.361, 323.500 423.584 C 327.350 422.808, 339.500 420.994, 350.500 419.555 C 361.500 418.116, 383.325 415.168, 399 413.005 C 414.675 410.842, 433.125 408.371, 440 407.515 C 459.220 405.120, 458.302 405.454, 457.530 401.150 C 456.926 397.790, 455.436 395.807, 452.608 394.599 C 451.928 394.309, 452.242 393.528, 453.419 392.579 C 455.258 391.097, 455.264 390.949, 453.571 389.079 C 452.599 388.005, 452.125 386.606, 452.518 385.971 C 452.911 385.336, 453.156 379.677, 453.063 373.395 C 452.899 362.334, 452.966 361.946, 455.197 361.051 C 456.819 360.400, 454.153 360.108, 446.177 360.063 C 435.951 360.006, 434.886 359.830, 435.188 358.250 C 435.475 356.750, 436.916 356.459, 445.262 356.214 C 450.618 356.056, 455 355.602, 455 355.204 C 455 354.807, 454.156 353.954, 453.125 353.310 C 451.378 352.219, 451.241 350.412, 451.117 326.820 C 451.044 312.894, 450.698 295.538, 450.347 288.250 C 449.717 275.169, 449.736 275, 451.855 275 C 454.251 275, 454.790 272.517, 452.578 271.668 C 450.411 270.837, 451.865 267.072, 454.619 266.381 C 457.147 265.746, 457.174 265.680, 457.372 259.514 C 457.491 255.812, 457.775 255.437, 461.374 254.250 C 463.504 253.546, 470.983 252.224, 477.995 251.312 L 490.742 249.654 490.240 243.401 C 489.776 237.615, 489.935 236.965, 492.369 234.709 C 493.816 233.368, 495 231.829, 495 231.290 C 495 230.750, 491.068 229.446, 486.261 228.391 C 476.322 226.210, 475.396 225.060, 479.577 220.091 C 481.046 218.345, 482.075 216.742, 481.862 216.529 C 481.372 216.039, 431.580 206.733, 415 204.033 C 408.125 202.914, 401.069 201.759, 399.321 201.467 L 396.142 200.936 396.321 194.718 L 396.500 188.500 402.250 186.520 C 405.413 185.431, 408 184.213, 408 183.813 C 408 183.413, 399.076 175.979, 388.169 167.293 C 324.381 116.492, 324.967 116.909, 317.581 117.113 C 315.336 117.175, 308.550 118.327, 302.500 119.673 M 297 135.447 C 293.975 136.172, 278 139.576, 261.500 143.012 C 245 146.448, 230.488 149.640, 229.250 150.105 C 227.263 150.852, 227 151.647, 227 156.904 L 227 162.858 232.250 163.883 C 258.851 169.076, 266.878 170.695, 282.867 174.095 C 292.968 176.243, 302.539 178, 304.136 178 L 307.039 178 306.770 156.250 C 306.462 131.403, 307.213 133.002, 297 135.447 M 272 143.466 C 257.975 146.377, 244.475 149.361, 242 150.097 C 237.527 151.426, 237.520 151.436, 240.709 151.777 C 246.266 152.372, 303 140.653, 303 138.910 C 303 137.325, 298.142 138.039, 272 143.466 M 318.588 159.171 C 318.144 172.360, 318.239 180.639, 318.840 181.240 C 319.370 181.770, 323.335 182.846, 327.652 183.632 C 339.825 185.847, 377.236 193.054, 379.750 193.668 C 381.853 194.181, 382 193.895, 382 189.295 C 382 183.307, 382.027 183.335, 361.665 168.389 C 353.506 162.400, 341.865 153.853, 335.797 149.396 C 329.728 144.938, 323.533 140.565, 322.031 139.677 L 319.299 138.063 318.588 159.171 M 204 189.393 C 204 196.384, 204.285 197.895, 205.708 198.441 C 209.675 199.964, 477.786 244, 483.087 244 C 484.713 244, 485 243.258, 485 239.059 C 485 236.341, 484.567 233.851, 484.039 233.524 C 483.016 232.892, 449.608 226.467, 416.500 220.535 C 405.500 218.564, 376.700 213.162, 352.500 208.529 C 301.803 198.825, 206.234 181, 204.902 181 C 204.406 181, 204 184.777, 204 189.393 M 141.500 193.072 C 70.716 208.761, 31.002 217.928, 28.866 219.072 C 27.446 219.832, 27.004 221.196, 27.015 224.785 C 27.024 227.378, 27.372 230.037, 27.789 230.692 C 28.357 231.586, 33.675 230.887, 49.023 227.902 C 195.117 199.482, 195.067 199.492, 196.208 197.698 C 197.116 196.269, 197.222 187.431, 196.370 184.250 C 195.927 182.598, 195.067 182.028, 193.133 182.106 C 191.685 182.164, 168.450 187.098, 141.500 193.072 M 179.500 209.071 C 163.258 212.373, 100.289 224.440, 75.500 229.002 C 54.052 232.949, 55 232.643, 55 235.613 C 55 237.858, 55.305 238.037, 58.250 237.525 C 117.423 227.217, 159.873 219.369, 188.540 213.436 C 200.300 211.002, 200.822 210.979, 211.040 212.430 C 221.345 213.894, 256.886 219.550, 299 226.428 C 310.825 228.359, 334.450 231.965, 351.500 234.441 C 368.550 236.917, 392.625 240.496, 405 242.395 C 417.375 244.293, 433.350 246.557, 440.500 247.425 C 447.650 248.292, 455.452 249.260, 457.838 249.576 C 461.651 250.080, 462.133 249.929, 461.826 248.333 C 461.524 246.768, 458.158 246, 437.488 242.777 C 366.948 231.780, 318.881 224.136, 278.500 217.492 C 197.111 204.102, 201.929 204.512, 179.500 209.071 M 213.037 236.170 C 209.482 236.677, 206.459 237.208, 206.318 237.349 C 206.177 237.490, 206.336 239.293, 206.670 241.356 C 207.135 244.222, 207.648 244.965, 208.844 244.506 C 209.705 244.176, 213.954 243.632, 218.288 243.298 C 225.427 242.748, 226.253 242.464, 227.084 240.280 C 229.247 234.589, 227.561 234.096, 213.037 236.170 M 214 248.320 L 209.500 249.500 208.917 323.500 C 208.583 365.845, 208.711 397.928, 209.217 398.500 C 210.282 399.706, 224.486 399.848, 225.667 398.665 C 226.898 397.430, 226.734 250.320, 225.500 249.155 C 223.727 247.480, 218.617 247.109, 214 248.320 M 236.064 248.423 C 234.512 250.293, 235.497 252, 238.129 252 C 239.624 252, 240.057 251.443, 239.820 249.828 C 239.420 247.115, 237.688 246.466, 236.064 248.423 M 82.380 257.452 C 81.605 259.473, 82.758 261, 85.059 261 C 86.463 261, 87 260.308, 87 258.500 C 87 256.654, 86.469 256, 84.969 256 C 83.851 256, 82.686 256.653, 82.380 257.452 M 176.024 257.972 C 173.562 258.370, 170.790 258.496, 169.864 258.254 C 168.523 257.904, 167.944 258.953, 167.019 263.407 C 165.622 270.138, 164.493 270.864, 165.461 264.409 C 166.130 259.948, 166.084 259.837, 163.825 260.513 C 162.546 260.895, 160.426 261.887, 159.114 262.716 C 156.847 264.149, 156.757 264.604, 157.297 271.862 C 157.789 278.473, 157.682 279.251, 156.499 277.650 C 155.748 276.632, 154.650 276.098, 154.059 276.463 C 152.867 277.200, 152.447 276.251, 151.533 270.750 C 151.016 267.640, 150.503 267, 148.526 267 C 144.239 267, 142.846 269.515, 143.573 275.939 C 144.158 281.113, 143.984 281.915, 141.745 284.330 C 138.724 287.590, 137.420 287.697, 136.630 284.750 C 135.595 280.887, 135.940 277.960, 137.500 277.362 C 138.325 277.045, 139 275.709, 139 274.393 C 139 271.335, 135.133 271.091, 132.516 273.983 C 130.973 275.688, 130.817 277.055, 131.403 283.733 C 132.130 292.005, 133.352 294, 137.691 294 C 139.308 294, 140 293.420, 140 292.063 C 140 290.609, 140.810 290.049, 143.250 289.813 C 146.313 289.518, 146.481 289.299, 146.167 286 L 145.833 282.500 147.956 284.750 C 150.633 287.588, 154.636 287.721, 155.500 285 C 155.945 283.599, 157.013 283, 159.067 283 C 161.585 283, 162.009 282.610, 162.063 280.250 C 162.124 277.607, 162.162 277.587, 163.031 279.750 C 164.087 282.377, 165.540 282.644, 166.775 280.437 C 167.569 279.019, 167.771 279.019, 168.948 280.437 C 169.661 281.297, 171.139 282, 172.231 282 C 173.850 282, 174.101 281.538, 173.589 279.500 C 173.016 277.214, 173.242 277.001, 176.231 277.007 C 178.029 277.010, 182.988 276.482, 187.250 275.834 L 195 274.654 195 265.827 L 195 257 187.750 257.125 C 183.762 257.194, 178.486 257.575, 176.024 257.972 M 68.684 258.750 C 68.446 259.163, 68.531 260.198, 68.875 261.050 C 69.383 262.310, 70.297 262.439, 73.750 261.741 C 79.676 260.543, 79.547 258, 73.559 258 C 71.116 258, 68.923 258.337, 68.684 258.750 M 238.240 305.250 C 238.496 349.747, 238.533 350.500, 240.500 350.500 C 242.389 350.500, 242.518 349.725, 242.824 336.500 C 243.001 328.800, 242.837 308.438, 242.458 291.250 C 241.802 261.486, 241.680 260, 239.875 260 C 238.039 260, 237.988 261.411, 238.240 305.250 M 252 265 L 252 269 257.933 269 C 262.837 269, 263.967 268.678, 264.455 267.141 C 265.767 263.009, 262.632 261, 254.875 261 C 252.188 261, 252 261.261, 252 265 M 272.436 264.305 C 272.109 265.157, 271.990 266.900, 272.171 268.177 C 272.466 270.258, 273.099 270.531, 278.250 270.800 L 284 271.100 284 267.550 C 284 264.480, 283.679 264, 281.625 264 C 280.319 264, 277.851 263.720, 276.140 263.378 C 273.845 262.919, 272.875 263.162, 272.436 264.305 M 291.404 266.389 C 289.937 270.213, 291.335 271.490, 297.327 271.802 L 303.134 272.104 302.817 268.802 C 302.507 265.569, 302.389 265.494, 297.239 265.197 C 293.291 264.970, 291.834 265.268, 291.404 266.389 M 437 267.393 C 437 269.192, 439.196 270, 444.082 270 C 448.911 270, 449.487 267.547, 444.875 266.625 C 439.814 265.613, 437 265.887, 437 267.393 M 72 267.733 C 71.175 268.045, 70.169 268.795, 69.765 269.400 C 69.361 270.005, 69.024 288.387, 69.015 310.250 L 69 350 71.939 350 C 74.634 350, 74.928 349.649, 75.483 345.750 C 76.504 338.580, 75.615 267.695, 74.500 267.416 C 73.950 267.279, 72.825 267.422, 72 267.733 M 82 308.500 L 82 350 85 350 L 88 350 88 311.625 C 88 290.519, 87.719 271.844, 87.375 270.125 C 86.886 267.678, 86.235 267, 84.375 267 L 82 267 82 308.500 M 328 270.395 C 328 273.629, 328.202 273.818, 332.250 274.387 C 334.587 274.715, 351.125 275.204, 369 275.474 L 401.500 275.965 367.500 271.514 C 348.800 269.066, 332.262 267.049, 330.750 267.031 C 328.284 267.003, 328 267.350, 328 270.395 M 316.660 290.662 C 316.297 303.125, 316 322.925, 316 334.662 L 316 356 313.250 355.998 C 303.850 355.991, 243.098 358.141, 241.250 358.545 C 238.965 359.046, 238.095 362.322, 239.943 363.465 C 241.776 364.597, 316.413 360.947, 317.215 359.686 C 317.696 358.930, 317.975 359.244, 317.985 360.550 C 317.993 361.677, 317.543 363.057, 316.984 363.616 C 316.331 364.269, 316.063 374.955, 316.234 393.566 C 316.493 421.745, 316.552 422.500, 318.500 422.500 C 320.473 422.500, 320.504 421.730, 320.811 365.500 C 321.169 299.852, 320.430 268, 318.550 268 C 317.631 268, 317.152 273.748, 316.660 290.662 M 165 270.755 C 165 271.305, 165.675 272.315, 166.500 273 C 167.337 273.694, 168 273.803, 168 273.245 C 168 272.695, 167.325 271.685, 166.500 271 C 165.663 270.306, 165 270.197, 165 270.755 M 148.091 272.500 C 148.001 274.747, 149.958 282.376, 150.487 281.844 C 150.675 281.655, 150.230 279.025, 149.499 276 C 148.768 272.975, 148.134 271.400, 148.091 272.500 M 252.190 277.201 L 252.500 281.500 258.500 281.500 L 264.500 281.500 264.500 277.500 L 264.500 273.500 258.190 273.201 L 251.880 272.901 252.190 277.201 M 272.193 278.250 L 272.500 282.500 278.250 282.800 L 284 283.100 284 279.167 C 284 274.789, 282.791 274.039, 275.693 274.014 L 271.885 274 272.193 278.250 M 291.190 278.750 L 291.500 282.500 297.250 282.800 L 303 283.100 303 279.050 L 303 275 296.940 275 L 290.879 275 291.190 278.750 M 430.667 275.667 C 429.546 276.787, 429.874 349, 431 349 C 431.649 349, 432 336, 432 312 C 432 291.650, 431.850 275, 431.667 275 C 431.483 275, 431.033 275.300, 430.667 275.667 M 438 312 L 438 349 441 349 L 444 349 444.250 323.750 C 444.589 289.538, 444.174 276.730, 442.696 275.791 C 442.038 275.373, 440.712 275.024, 439.750 275.015 C 438.115 275.001, 438 277.423, 438 312 M 122.794 277.553 C 120.939 278.557, 119.878 280.135, 119.422 282.565 C 117.464 293.001, 124.044 302.442, 128.517 295.615 C 130.488 292.606, 129.547 280.848, 127.105 277.975 C 125.644 276.256, 125.257 276.219, 122.794 277.553 M 327 279.500 C 327 281.212, 327.551 282.002, 328.750 282.005 C 331.520 282.013, 397.246 286.877, 410.275 288.038 C 416.752 288.615, 422.489 288.816, 423.025 288.484 C 424.198 287.760, 424.323 284.318, 423.203 283.625 C 421.672 282.679, 343.539 277, 332.056 277 C 327.330 277, 327 277.163, 327 279.500 M 112.750 279.080 C 111.504 279.806, 111 281.363, 111 284.491 C 111 289.227, 110.879 289.394, 106.750 290.381 C 104.003 291.037, 104 291.033, 104 285.519 C 104 280.027, 103.598 279.450, 100.582 280.607 C 99.249 281.118, 99 283.309, 99 294.521 L 99 307.827 101.726 307.098 C 104.312 306.406, 104.446 306.076, 104.316 300.690 C 104.181 295.121, 104.240 294.994, 107.339 294.152 C 109.078 293.680, 110.838 293.479, 111.250 293.706 C 111.662 293.933, 112 296.165, 112 298.666 C 112 302.402, 112.282 303.106, 113.582 302.607 C 114.452 302.273, 115.847 302, 116.683 302 C 118.229 302, 118.163 297.943, 116.372 282.750 C 115.780 277.725, 115.523 277.465, 112.750 279.080 M 124.070 285.250 C 124.032 287.863, 124.450 290, 125 290 C 126.201 290, 126.201 285.295, 125 282.500 C 124.353 280.995, 124.123 281.676, 124.070 285.250 M 167.250 285.106 C 165.463 285.629, 164 286.542, 164 287.136 C 164 287.729, 164.712 287.941, 165.582 287.607 C 166.452 287.273, 174.814 287, 184.165 287 C 197.321 287, 201.073 286.717, 200.751 285.750 C 200.235 284.197, 172.198 283.658, 167.250 285.106 M 251.433 290.507 C 251.071 292.435, 251.078 296.035, 251.449 298.507 L 252.123 303 258.561 303 L 265 303 265 295 L 265 287 258.545 287 L 252.091 287 251.433 290.507 M 291.210 295.696 L 291.500 304.500 296.790 304.804 L 302.079 305.107 301.790 296.304 L 301.500 287.500 296.210 287.196 L 290.921 286.893 291.210 295.696 M 272.417 289.355 C 272.131 290.101, 272.033 293.588, 272.199 297.105 L 272.500 303.500 278.250 303.800 L 284 304.100 284 296.050 L 284 288 278.469 288 C 274.737 288, 272.768 288.441, 272.417 289.355 M 163 292.458 L 163 295.916 155.250 296.208 L 147.500 296.500 147.541 301.719 L 147.582 306.938 136.541 307.219 L 125.500 307.500 125.770 312.647 L 126.040 317.793 119.020 318.498 L 112 319.203 112 323.549 L 112 327.895 106.750 328.198 C 101.651 328.491, 101.500 328.586, 101.500 331.500 L 101.500 334.500 111.500 335.121 C 117 335.463, 126.787 335.507, 133.250 335.218 C 145.869 334.654, 147.020 334.020, 142.904 329.904 C 140.948 327.948, 139.926 327.831, 127.531 328.154 C 118.324 328.394, 114.380 328.170, 114.667 327.422 C 114.895 326.830, 114.607 325.096, 114.026 323.570 L 112.971 320.794 137.486 321.147 C 153.220 321.374, 162.151 321.142, 162.421 320.500 C 162.653 319.950, 162.878 320.063, 162.921 320.750 C 163.028 322.443, 165.479 322.333, 166.942 320.570 C 167.892 319.426, 167.716 318.918, 166.065 318.035 C 164.836 317.377, 164 315.932, 164 314.465 C 164 313.109, 163.550 312, 163 312 C 162.450 312, 162 313.601, 162 315.557 C 162 319.032, 161.949 319.078, 159.777 317.557 C 158.009 316.318, 154.534 316, 142.777 316 L 128 316 128 313 C 128 310.032, 128.062 309.998, 133.750 309.848 C 136.912 309.764, 139.950 309.591, 140.500 309.463 C 141.050 309.335, 149.713 309.179, 159.750 309.115 C 176.916 309.007, 178 308.888, 178 307.117 C 178 304.507, 175.442 304.029, 161.367 304.014 C 149.357 304, 149.228 303.975, 148.774 301.600 C 148.338 299.318, 148.636 299.165, 154.811 298.504 C 158.383 298.121, 169.639 297.958, 179.824 298.141 C 199.966 298.504, 201.344 298.125, 196.933 293.429 C 193.944 290.247, 192.503 290.311, 194.612 293.531 C 196.662 296.660, 195.542 298.219, 193.420 295.190 C 191.972 293.121, 191.141 293, 178.443 293 C 165.667 293, 165 292.901, 165 291 C 165 289.900, 164.550 289, 164 289 C 163.450 289, 163 290.556, 163 292.458 M 371.667 293.667 C 370.816 294.517, 370.816 330.512, 371.666 375.863 L 372.328 411.227 376.914 410.593 C 379.436 410.244, 390.050 408.832, 400.500 407.454 C 410.950 406.077, 420.512 404.727, 421.750 404.456 L 424 403.962 424 349.981 C 424 320.291, 423.623 296, 423.162 296 C 422.701 296, 422.041 319.252, 421.696 347.670 C 421.272 382.441, 420.719 399.556, 420.003 399.998 C 418.410 400.983, 375.997 406.116, 374.926 405.454 C 374.397 405.127, 374 393.966, 374 379.441 C 374 354.667, 374.052 354, 376 354 C 377.778 354, 378 354.667, 378 360 L 378 366 384.750 365.985 C 388.462 365.976, 392.070 365.608, 392.766 365.166 C 394.090 364.325, 394.612 358.471, 394.227 348.750 L 394 343 386 343 L 378 343 378 346.500 C 378 350.313, 377.001 350.911, 374.887 348.364 C 373.837 347.099, 373.458 340.698, 373.214 320.146 C 373.040 305.526, 372.771 293.437, 372.615 293.282 C 372.460 293.127, 372.033 293.300, 371.667 293.667 M 379.750 294.558 C 379.337 294.984, 379 297.023, 379 299.087 L 379 302.841 385.481 303.535 C 394.184 304.467, 395.409 303.910, 394.671 299.358 C 394.349 297.375, 393.905 295.572, 393.685 295.352 C 392.855 294.522, 380.468 293.816, 379.750 294.558 M 400.589 296.628 C 400.265 297.472, 400 299.416, 400 300.946 C 400 303.498, 400.384 303.781, 404.640 304.364 C 407.191 304.714, 410.791 305, 412.640 305 C 415.767 305, 415.999 304.775, 415.985 301.750 C 415.976 299.962, 415.639 298.006, 415.235 297.402 C 414.831 296.798, 411.503 296.032, 407.839 295.698 C 402.389 295.202, 401.072 295.371, 400.589 296.628 M 180 302.441 C 180 303.848, 180.466 305, 181.035 305 C 181.723 305, 181.696 305.700, 180.954 307.086 C 179.571 309.671, 179.891 309.997, 182.750 308.916 C 185.371 307.924, 185.598 306.741, 183.500 305 C 182.675 304.315, 182 303.162, 182 302.437 C 182 301.711, 181.550 300.840, 181 300.500 C 180.433 300.149, 180 300.990, 180 302.441 M 381.250 307.820 C 379.168 308.115, 379 308.648, 379 314.945 L 379 321.750 382.125 322.375 C 383.844 322.719, 387.183 323, 389.546 323 C 393.489 323, 393.894 322.758, 394.489 320.049 C 394.846 318.426, 394.836 315.090, 394.468 312.636 L 393.799 308.173 388.649 307.837 C 385.817 307.652, 382.488 307.644, 381.250 307.820 M 400.607 309.582 C 399.833 311.598, 399.846 317.825, 400.630 320.750 C 401.181 322.804, 401.826 323, 408.049 323 C 415.960 323, 416.628 322.200, 415.509 314.067 L 414.847 309.251 410.284 308.625 C 403.271 307.664, 401.267 307.862, 400.607 309.582 M 251.630 311.250 C 251.299 312.488, 251.027 315.300, 251.027 317.500 C 251.027 325.507, 251.468 326, 258.617 326 L 265 326 265 317.500 L 265 309 258.617 309 C 252.842 309, 252.176 309.215, 251.630 311.250 M 272 312.952 L 272 317 278.560 317 L 285.121 317 284.810 313.250 L 284.500 309.500 278.250 309.202 L 272 308.905 272 312.952 M 291.411 310.372 C 291.098 311.187, 290.990 312.900, 291.171 314.177 C 291.465 316.254, 292.030 316.500, 296.500 316.500 L 301.500 316.500 301.500 313 C 301.500 309.533, 301.455 309.497, 296.740 309.195 C 293.248 308.971, 291.828 309.285, 291.411 310.372 M 129.500 313 C 129.160 313.550, 129.584 314, 130.441 314 C 131.298 314, 132 313.550, 132 313 C 132 312.450, 131.577 312, 131.059 312 C 130.541 312, 129.840 312.450, 129.500 313 M 337 317.729 C 334.614 318.637, 334.031 320.163, 334.029 325.500 C 334.026 335.071, 333.948 335, 344.510 335 C 355.101 335, 355 335.084, 355 326.352 C 355 317.757, 354.228 316.986, 345.715 317.079 C 341.747 317.122, 337.825 317.415, 337 317.729 M 196.500 323.186 C 194.300 325.994, 186.711 335.314, 179.635 343.896 L 166.770 359.500 176.135 360.138 C 181.286 360.489, 189.213 360.827, 193.750 360.888 L 202 361 202 339.500 C 202 327.675, 201.662 318.018, 201.250 318.040 C 200.838 318.062, 198.700 320.378, 196.500 323.186 M 272 322.952 L 272 326 278.566 326 L 285.133 326 284.816 323.250 C 284.513 320.614, 284.240 320.488, 278.250 320.202 L 272 319.905 272 322.952 M 291 323 C 291 325.966, 291.062 326, 296.441 326 C 302.246 326, 303.505 325.167, 302.497 321.991 C 301.968 320.325, 300.979 320, 296.433 320 C 291.063 320, 291 320.035, 291 323 M 337.813 321.683 C 338.534 321.972, 339.397 321.936, 339.729 321.604 C 340.061 321.272, 339.471 321.036, 338.417 321.079 C 337.252 321.127, 337.015 321.364, 337.813 321.683 M 145.479 324.500 C 147.061 334.983, 147.069 335, 150.052 335 C 153.704 335, 154.594 333.489, 152.167 331.411 C 150.926 330.348, 150.442 329.014, 150.797 327.634 C 151.280 325.760, 151.147 325.663, 149.713 326.840 C 148.284 328.012, 147.888 327.761, 146.552 324.840 L 145.026 321.500 145.479 324.500 M 378.614 329.402 C 378.282 330.724, 378.288 333.188, 378.626 334.880 C 379.325 338.376, 382.214 339.374, 390.023 338.819 C 394.307 338.514, 394.514 338.354, 394.824 335.112 C 395.002 333.248, 394.881 330.661, 394.555 329.362 C 393.999 327.147, 393.504 327, 386.589 327 C 379.639 327, 379.182 327.138, 378.614 329.402 M 400.623 328.540 C 399.831 330.605, 399.823 334.375, 400.607 336.418 C 401.085 337.665, 402.793 338, 408.659 338 L 416.105 338 415.802 332.750 L 415.500 327.500 408.373 327.209 C 402.543 326.970, 401.132 327.213, 400.623 328.540 M 272 329 C 272 329.564, 274.833 330, 278.500 330 C 282.167 330, 285 329.564, 285 329 C 285 328.436, 282.167 328, 278.500 328 C 274.833 328, 272 328.436, 272 329 M 252.710 331.623 C 252.320 332.014, 252 333.833, 252 335.667 L 252 339 258.560 339 L 265.121 339 264.810 335.250 L 264.500 331.500 258.960 331.206 C 255.913 331.045, 253.101 331.232, 252.710 331.623 M 291.212 340.199 L 291.500 349.500 297 349.500 L 302.500 349.500 302.500 340.500 L 302.500 331.500 296.712 331.199 L 290.924 330.898 291.212 340.199 M 272 341 L 272 350 278.500 350 L 285 350 285 341 L 285 332 278.500 332 L 272 332 272 341 M 404 342.859 L 400.500 343.500 400.215 353.768 C 400.002 361.431, 400.256 364.155, 401.215 364.505 C 401.922 364.764, 405.425 364.643, 409 364.238 L 415.500 363.500 415.500 353 L 415.500 342.500 411.500 342.359 C 409.300 342.281, 405.925 342.506, 404 342.859 M 253.750 343.667 C 252.511 344.006, 252 345.162, 252 347.621 L 252 351.095 258.250 350.798 L 264.500 350.500 264.500 347 C 264.500 343.542, 264.446 343.498, 260 343.343 C 257.525 343.257, 254.713 343.403, 253.750 343.667 M 365.002 354.250 L 365.005 364.500 358.002 364.168 C 351.468 363.858, 351 363.975, 351 365.918 C 351 367.828, 351.575 368, 357.965 368 C 363.827 368, 365.093 367.694, 365.965 366.066 C 367.311 363.551, 367.342 344, 366 344 C 365.398 344, 365.001 348.082, 365.002 354.250 M 430.543 357.931 C 430.226 358.443, 430.425 359.144, 430.984 359.490 C 431.543 359.835, 432 359.416, 432 358.559 C 432 356.802, 431.400 356.544, 430.543 357.931 M 401.750 370.080 C 400.260 370.948, 400 372.652, 400 381.550 L 400 392 397.500 392 L 395 392 395 380.856 L 395 369.711 387.403 370.286 C 383.225 370.602, 379.594 371.073, 379.335 371.332 C 378.260 372.407, 377.736 397.719, 378.775 398.361 C 379.361 398.723, 387.749 398.115, 397.417 397.010 C 407.084 395.904, 415.220 395, 415.497 395 C 415.774 395, 416 389.150, 416 382 L 416 369 409.750 369.030 C 406.313 369.047, 402.712 369.519, 401.750 370.080 M 205.888 404.210 C 204.559 406.693, 208.217 408, 216.500 408 C 224.092 408, 228.278 406.659, 227.823 404.373 C 227.553 403.017, 225.808 402.722, 217.178 402.576 C 208.135 402.422, 206.736 402.625, 205.888 404.210 M 71.484 410.096 C 71.077 412.506, 71.210 414.610, 71.808 415.208 C 72.786 416.186, 90.598 418.934, 96.250 418.978 C 98.878 418.999, 99 418.783, 99 414.108 C 99 408.422, 99.423 408.642, 85.467 407.044 C 71.816 405.480, 72.281 405.378, 71.484 410.096 M 107 415.031 C 107 418.144, 107.477 420.239, 108.250 420.524 C 109.254 420.894, 164.767 428.661, 186.649 431.493 L 191.797 432.160 192.472 427.830 C 192.843 425.448, 193.368 422.713, 193.640 421.751 C 193.978 420.556, 193.353 419.705, 191.670 419.065 C 188.755 417.956, 118.585 410, 111.726 410 L 107 410 107 415.031 M 269.500 413.496 C 259.050 414.730, 248.106 416.070, 245.180 416.473 L 239.859 417.207 240.503 421.354 C 241.530 427.973, 242.015 429, 244.114 429 C 246.581 429, 295.040 422.093, 296.750 421.498 C 297.527 421.228, 298 419.158, 298 416.031 L 298 411 293.250 411.126 C 290.637 411.195, 279.950 412.261, 269.500 413.496 M 205.419 415.250 C 204.521 417.038, 202.202 420.838, 200.265 423.695 C 194.564 432.105, 194.918 432.294, 215.480 431.846 C 225.080 431.636, 233.368 431.023, 233.897 430.482 C 234.516 429.850, 233.370 426.404, 230.679 420.808 L 226.500 412.116 216.776 412.058 L 207.051 412 205.419 415.250" stroke="none" fill="black" fill-rule="evenodd"/>
</svg>